<?xml version="1.0" standalone="no"?>
<!DOCTYPE svg PUBLIC "-//W3C//DTD SVG 20010904//EN"
 "http://www.w3.org/TR/2001/REC-SVG-20010904/DTD/svg10.dtd">
<svg version="1.0" xmlns="http://www.w3.org/2000/svg"
 width="1400.000000pt" height="1400.000000pt" viewBox="0 0 1400.000000 1400.000000"
 preserveAspectRatio="xMidYMid meet">
<metadata>
Created by potrace 1.11, written by Peter Selinger 2001-2013
</metadata>
<g transform="translate(0.000000,1400.000000) scale(0.100000,-0.100000)"
fill="#000000" stroke="none">
<path d="M2776 13989 c-433 -46 -871 -188 -1233 -400 -698 -410 -1210 -1065
-1428 -1832 -36 -124 -72 -299 -97 -462 -20 -134 -20 -8456 0 -8590 25 -163
61 -338 97 -462 269 -945 980 -1711 1906 -2057 186 -69 407 -124 649 -163 110
-17 300 -18 4330 -18 4030 0 4220 1 4330 18 254 41 491 102 690 179 829 322
1483 985 1794 1819 69 186 124 407 163 649 17 110 18 300 18 4330 0 4030 -1
4220 -18 4330 -39 242 -94 463 -163 649 -317 849 -986 1518 -1835 1835 -179
66 -373 116 -619 159 l-125 22 -4190 1 c-2304 1 -4225 -2 -4269 -7z m10064
-2574 c181 -313 328 -570 327 -571 -1 -1 -643 -372 -1427 -824 -784 -453
-1431 -828 -1437 -834 -10 -9 75 -163 388 -705 220 -381 397 -697 392 -701
-27 -26 -916 -530 -923 -523 -28 31 -2269 3928 -2263 3934 27 26 916 529 923
523 4 -5 184 -315 400 -689 216 -374 395 -683 399 -687 4 -4 652 366 1441 822
789 456 1439 829 1443 827 4 -1 156 -259 337 -572z m-9909 -275 c787 -452
1432 -820 1434 -818 2 2 182 315 400 696 226 394 403 692 410 690 36 -9 915
-524 913 -534 -5 -22 -2252 -3934 -2259 -3934 -4 0 -211 117 -461 260 -328
189 -453 265 -452 278 0 9 177 325 393 701 216 376 389 687 384 691 -4 4 -649
375 -1433 825 -784 449 -1429 820 -1433 825 -13 12 643 1152 659 1146 7 -3
657 -375 1445 -826z m3542 -2837 l637 -277 0 -121 0 -122 -27 -12 c-16 -7
-359 -156 -763 -331 -404 -175 -777 -336 -827 -358 l-93 -41 0 182 0 182 603
239 c331 132 608 242 615 246 7 3 -264 121 -602 261 l-616 254 0 182 0 181
218 -94 c119 -52 504 -219 855 -371z m2655 -1870 l2 -183 -900 0 -900 0 0 185
0 185 898 -2 897 -3 3 -182z m152 -1398 l0 -535 -810 0 -810 0 0 -1665 0
-1665 -660 0 -660 0 0 1665 0 1665 -810 0 -810 0 0 535 0 535 2280 0 2280 0 0
-535z"/>
</g>
</svg>
