<?xml version="1.0" standalone="no"?>
<!DOCTYPE svg PUBLIC "-//W3C//DTD SVG 20010904//EN"
 "http://www.w3.org/TR/2001/REC-SVG-20010904/DTD/svg10.dtd">
<svg version="1.0" xmlns="http://www.w3.org/2000/svg"
 width="700.000000pt" height="700.000000pt" viewBox="0 0 700.000000 700.000000"
 preserveAspectRatio="xMidYMid meet">
<metadata>
Created by potrace 1.11, written by Peter Selinger 2001-2013
</metadata>
<g transform="translate(0.000000,700.000000) scale(0.100000,-0.100000)"
fill="#000000" stroke="none">
<path d="M1355 6993 c-78 -10 -199 -38 -283 -65 -559 -178 -980 -678 -1061
-1262 -8 -53 -11 -728 -11 -2171 0 -2050 0 -2095 20 -2210 55 -321 199 -596
434 -830 238 -237 513 -381 831 -435 115 -20 160 -20 2215 -20 2055 0 2100 0
2215 20 215 37 431 125 620 253 52 36 141 113 211 182 236 235 379 511 435
833 18 110 19 180 19 2212 0 2032 -1 2102 -19 2212 -57 330 -210 619 -452 854
-212 204 -432 324 -739 402 l-105 27 -2150 1 c-1182 1 -2163 -1 -2180 -3z
m270 -1383 c640 -367 822 -467 831 -457 6 6 95 159 198 339 l188 328 26 -15
c179 -98 366 -214 364 -226 -4 -15 -1059 -1858 -1072 -1873 -5 -4 -97 42 -205
104 -154 88 -195 116 -190 128 3 9 90 162 192 340 106 185 182 327 177 332 -5
5 -376 219 -824 476 -448 256 -816 467 -817 468 -4 4 299 526 306 526 3 0 375
-211 826 -470z m4865 -24 c82 -143 149 -261 147 -262 -1 -2 -369 -215 -817
-474 -448 -259 -818 -474 -822 -478 -3 -4 81 -158 188 -342 107 -184 194 -337
194 -340 -1 -11 -394 -230 -400 -223 -11 11 -1080 1862 -1083 1874 -1 5 87 61
195 124 l197 114 49 -82 c26 -45 114 -198 196 -339 140 -243 149 -257 169
-246 12 6 177 101 367 211 190 109 494 285 675 390 182 105 386 223 455 264
69 40 128 72 132 70 5 -1 75 -119 158 -261z m-3137 -1292 l548 -198 -3 -74 -3
-74 -555 -202 -555 -201 -3 74 c-2 49 1 77 9 81 6 4 206 76 443 160 237 84
434 156 438 159 4 4 -195 79 -442 166 l-450 160 0 79 c0 58 3 77 13 73 6 -2
259 -94 560 -203z m1657 -1194 l0 -60 -465 0 -465 0 0 60 0 60 465 0 465 0 0
-60z m-560 -375 l0 -235 -390 0 -390 0 0 -950 0 -950 -310 0 -310 0 0 950 0
950 -390 0 -390 0 0 235 0 235 1090 0 1090 0 0 -235z"/>
</g>
</svg>
